<svg width="390" height="95" viewBox="0 0 390 95" fill="none" xmlns="http://www.w3.org/2000/svg">
<path d="M61.9365 72.9235H44.1126C33.557 72.9075 25 64.8937 25 55.0073C25 45.1248 33.557 37.111 44.1126 37.111C45.7255 30.0755 51.4753 24.3336 59.195 22.0457C66.9106 19.7617 75.4306 21.2751 81.5375 26.0386C87.6443 30.7902 90.4104 38.0453 88.8016 45.0809H92.8646C95.9009 45.0863 98.8559 46.0363 101.298 47.792C103.74 49.5477 105.54 52.0172 106.437 54.8396M101.067 74L106.829 67.9423L101.067 61.8845M78.4896 61.8845L72.7276 67.9423L78.4896 74" stroke="#F97316" stroke-width="6" stroke-linecap="round" stroke-linejoin="round"/>
<path d="M157.343 60V37.28H163.679L171.263 50.08V37.28H177.535V60H171.199L163.615 47.84V60H157.343ZM180.995 60V42.72H187.203V60H180.995ZM180.899 40.992V36.64H187.299V40.992H180.899ZM190.933 60V42.72H196.501L196.693 46.752L196.245 46.496C196.479 45.6 196.831 44.8427 197.301 44.224C197.791 43.6053 198.367 43.136 199.029 42.816C199.711 42.496 200.447 42.336 201.237 42.336C202.645 42.336 203.775 42.7627 204.629 43.616C205.482 44.448 206.037 45.5573 206.293 46.944L205.653 47.008C205.866 45.984 206.218 45.1307 206.709 44.448C207.199 43.744 207.786 43.2213 208.469 42.88C209.173 42.5173 209.941 42.336 210.773 42.336C211.925 42.336 212.938 42.5813 213.813 43.072C214.687 43.5627 215.37 44.2987 215.861 45.28C216.373 46.24 216.629 47.4453 216.629 48.896V60H210.421V50.72C210.421 49.504 210.271 48.5973 209.973 48C209.695 47.4027 209.194 47.104 208.469 47.104C208.021 47.104 207.647 47.2427 207.349 47.52C207.071 47.7973 206.858 48.2133 206.709 48.768C206.559 49.3013 206.485 49.952 206.485 50.72V60H201.045V50.72C201.045 49.504 200.906 48.5973 200.629 48C200.351 47.4027 199.85 47.104 199.125 47.104C198.677 47.104 198.303 47.2427 198.005 47.52C197.727 47.7973 197.514 48.2133 197.365 48.768C197.215 49.3013 197.141 49.952 197.141 50.72V60H190.933ZM231.228 60.384C230.012 60.384 228.977 60.1387 228.124 59.648C227.271 59.136 226.599 58.4213 226.108 57.504L226.012 60H219.964V37.28H226.172V45.216C226.663 44.3413 227.335 43.648 228.188 43.136C229.041 42.6027 230.055 42.336 231.228 42.336C232.657 42.336 233.895 42.7093 234.94 43.456C236.007 44.2027 236.828 45.2587 237.404 46.624C237.98 47.968 238.268 49.5467 238.268 51.36C238.268 53.1733 237.98 54.7627 237.404 56.128C236.828 57.472 236.007 58.5173 234.94 59.264C233.895 60.0107 232.657 60.384 231.228 60.384ZM229.116 55.936C229.927 55.936 230.588 55.5413 231.1 54.752C231.633 53.9627 231.9 52.832 231.9 51.36C231.9 49.888 231.644 48.7573 231.132 47.968C230.641 47.1787 229.969 46.784 229.116 46.784C228.497 46.784 227.964 46.9653 227.516 47.328C227.068 47.6693 226.727 48.1813 226.492 48.864C226.279 49.5467 226.172 50.3787 226.172 51.36C226.172 52.32 226.279 53.1413 226.492 53.824C226.727 54.5067 227.068 55.0293 227.516 55.392C227.964 55.7547 228.497 55.936 229.116 55.936ZM246.472 60.384C244.659 60.384 243.251 59.8187 242.248 58.688C241.267 57.536 240.776 55.9253 240.776 53.856V42.72H246.984V52.448C246.984 53.5573 247.134 54.368 247.432 54.88C247.731 55.3707 248.2 55.616 248.84 55.616C249.587 55.616 250.152 55.3493 250.536 54.816C250.92 54.2613 251.112 53.3653 251.112 52.128V42.72H257.32V60H251.752L251.528 54.56L252.232 54.624C252.062 56.5653 251.496 58.016 250.536 58.976C249.576 59.9147 248.222 60.384 246.472 60.384ZM268.685 60.384C266.744 60.384 265.133 60.1387 263.853 59.648C262.573 59.136 261.602 58.4427 260.941 57.568C260.28 56.6933 259.906 55.6907 259.821 54.56L266.061 54.4C266.189 55.0827 266.466 55.5947 266.893 55.936C267.32 56.256 267.928 56.416 268.717 56.416C269.378 56.416 269.869 56.3093 270.189 56.096C270.53 55.8827 270.701 55.5733 270.701 55.168C270.701 54.8693 270.626 54.624 270.477 54.432C270.328 54.2187 270.04 54.0373 269.613 53.888C269.208 53.7387 268.6 53.6 267.789 53.472C265.848 53.152 264.322 52.7787 263.213 52.352C262.125 51.9253 261.357 51.3707 260.909 50.688C260.461 49.984 260.237 49.0987 260.237 48.032C260.237 46.304 260.93 44.928 262.317 43.904C263.704 42.8587 265.826 42.336 268.685 42.336C270.456 42.336 271.938 42.592 273.133 43.104C274.328 43.616 275.245 44.3413 275.885 45.28C276.546 46.1973 276.941 47.2853 277.069 48.544L270.925 48.736C270.882 48.2027 270.754 47.7547 270.541 47.392C270.349 47.0293 270.093 46.7627 269.773 46.592C269.453 46.4 269.069 46.304 268.621 46.304C268.024 46.304 267.533 46.4427 267.149 46.72C266.786 46.976 266.605 47.3493 266.605 47.84C266.605 48.16 266.68 48.4267 266.829 48.64C267 48.8533 267.277 49.024 267.661 49.152C268.045 49.28 268.557 49.3867 269.197 49.472C271.096 49.7067 272.621 50.0587 273.773 50.528C274.925 50.9973 275.757 51.6053 276.269 52.352C276.802 53.0773 277.069 53.9627 277.069 55.008C277.069 56.16 276.738 57.1413 276.077 57.952C275.416 58.7413 274.456 59.3493 273.197 59.776C271.96 60.1813 270.456 60.384 268.685 60.384ZM291.866 60V42.304H285.242V37.28H304.794V42.304H298.17V60H291.866ZM312.819 60.384C310.963 60.384 309.342 60.0107 307.955 59.264C306.568 58.5173 305.491 57.472 304.723 56.128C303.955 54.7627 303.571 53.1733 303.571 51.36C303.571 49.5467 303.955 47.968 304.723 46.624C305.491 45.28 306.568 44.2347 307.955 43.488C309.342 42.72 310.963 42.336 312.819 42.336C314.675 42.336 316.275 42.7307 317.619 43.52C318.984 44.288 320.03 45.3867 320.755 46.816C321.48 48.2453 321.843 49.9307 321.843 51.872V52.96H309.971C310.014 54.0053 310.302 54.784 310.835 55.296C311.39 55.7867 312.094 56.032 312.947 56.032C313.566 56.032 314.088 55.9147 314.515 55.68C314.963 55.4453 315.283 55.0293 315.475 54.432L321.619 54.752C321.15 56.608 320.126 58.016 318.547 58.976C316.968 59.9147 315.059 60.384 312.819 60.384ZM309.971 49.632H315.635C315.614 48.6293 315.347 47.872 314.835 47.36C314.323 46.8267 313.651 46.56 312.819 46.56C312.03 46.56 311.368 46.8373 310.835 47.392C310.323 47.9467 310.035 48.6933 309.971 49.632ZM332.915 60.384C331.038 60.384 329.395 60.0107 327.987 59.264C326.6 58.5173 325.512 57.472 324.723 56.128C323.955 54.7627 323.571 53.1733 323.571 51.36C323.571 49.5467 323.955 47.968 324.723 46.624C325.512 45.28 326.6 44.2347 327.987 43.488C329.395 42.72 331.038 42.336 332.915 42.336C334.579 42.336 336.072 42.6347 337.395 43.232C338.718 43.808 339.784 44.64 340.595 45.728C341.427 46.7947 341.918 48.0853 342.067 49.6L335.699 49.856C335.571 48.832 335.262 48.0747 334.771 47.584C334.28 47.072 333.662 46.816 332.915 46.816C331.955 46.816 331.219 47.2107 330.707 48C330.195 48.7893 329.939 49.9093 329.939 51.36C329.939 52.832 330.195 53.9627 330.707 54.752C331.219 55.5413 331.955 55.936 332.915 55.936C333.683 55.936 334.312 55.6907 334.803 55.2C335.315 54.688 335.614 53.888 335.699 52.8L342.067 52.992C341.939 54.5067 341.47 55.8187 340.659 56.928C339.87 58.0373 338.814 58.8907 337.491 59.488C336.168 60.0853 334.643 60.384 332.915 60.384ZM344.245 60V37.28H350.453V46.88L349.621 46.944C349.749 45.8987 350.058 45.0453 350.549 44.384C351.061 43.7013 351.69 43.1893 352.437 42.848C353.205 42.5067 354.037 42.336 354.933 42.336C356.256 42.336 357.354 42.6133 358.229 43.168C359.104 43.7227 359.754 44.5013 360.181 45.504C360.629 46.4853 360.853 47.616 360.853 48.896V60H354.645V50.272C354.645 49.248 354.506 48.4693 354.229 47.936C353.952 47.3813 353.44 47.104 352.693 47.104C351.968 47.104 351.413 47.3813 351.029 47.936C350.645 48.4907 350.453 49.3333 350.453 50.464V60H344.245Z" fill="#1D1B20"/>
</svg>
