<svg width="102" height="95" viewBox="0 0 102 95" fill="none" xmlns="http://www.w3.org/2000/svg">
<path d="M47.0136 72.9235H29.1525C18.5748 72.9075 10 64.8937 10 55.0073C10 45.1248 18.5748 37.111 29.1525 37.111C30.7688 30.0755 36.5305 24.3336 44.2664 22.0457C51.9981 19.7617 60.5359 21.2751 66.6555 26.0386C72.7751 30.7902 75.547 38.0453 73.9349 45.0809H78.0064C81.049 45.0863 84.0101 46.0363 86.457 47.792C88.904 49.5477 90.7084 52.0172 91.6068 54.8396M86.2259 74L92 67.9423L86.2259 61.8845M63.6013 61.8845L57.8273 67.9423L63.6013 74" stroke="#F97316" stroke-width="6" stroke-linecap="round" stroke-linejoin="round"/>
</svg>
